<?xml version="1.0" encoding="utf-8"?>
<!-- Svg Vector Icons : http://www.onlinewebfonts.com/icon -->
<!DOCTYPE svg PUBLIC "-//W3C//DTD SVG 1.1//EN" "http://www.w3.org/Graphics/SVG/1.1/DTD/svg11.dtd">
<svg version="1.1" xmlns="http://www.w3.org/2000/svg" xmlns:xlink="http://www.w3.org/1999/xlink" x="0px" y="0px" viewBox="0 0 1000 1000" enable-background="new 0 0 1000 1000" xml:space="preserve">
<metadata> Svg Vector Icons : http://www.onlinewebfonts.com/icon </metadata>
<g><path d="M500,10C229.4,10,10,229.4,10,500c0,270.6,219.4,490,490,490c270.6,0,490-219.4,490-490C990,229.4,770.6,10,500,10z M803.2,803.2c-39.4,39.4-85.3,70.3-136.3,91.9c-52.8,22.3-109,33.7-166.9,33.7c-57.9,0-114.1-11.3-166.9-33.7c-51-21.6-96.9-52.5-136.3-91.9c-39.4-39.4-70.3-85.3-91.9-136.3c-22.3-52.8-33.7-109-33.7-166.9c0-57.9,11.3-114.1,33.7-166.9c21.6-51,52.5-96.9,91.9-136.3c39.4-39.4,85.3-70.3,136.3-91.9c52.8-22.3,109-33.7,166.9-33.7c57.9,0,114,11.3,166.9,33.7c51,21.6,96.9,52.5,136.3,91.9c39.4,39.4,70.3,85.3,91.9,136.3c22.3,52.8,33.7,109,33.7,166.9c0,57.9-11.3,114.1-33.7,166.9C873.5,717.9,842.6,763.8,803.2,803.2z"/><path d="M731.5,314.4L426.1,619.8L270.7,464.5c-12.1-12.1-31.7-12.1-43.8,0c-12.1,12.1-12.1,31.7,0,43.8l177.3,177.3l0,0c1.9,1.9,4,3.5,6.2,4.8c11.9,7,27.5,5.4,37.7-4.8l0,0l327.4-327.4c12.1-12.1,12.1-31.7,0-43.8C763.3,302.3,743.7,302.3,731.5,314.4z"/></g>
</svg>