<?xml version="1.0" standalone="no"?>
<!DOCTYPE svg PUBLIC "-//W3C//DTD SVG 20010904//EN"
 "http://www.w3.org/TR/2001/REC-SVG-20010904/DTD/svg10.dtd">
<svg version="1.0" xmlns="http://www.w3.org/2000/svg"
 width="512.000000pt" height="512.000000pt" viewBox="0 0 512.000000 512.000000"
 preserveAspectRatio="xMidYMid meet">
<metadata>
Created by potrace 1.16, written by Peter Selinger 2001-2019
</metadata>
<g transform="translate(0.000000,512.000000) scale(0.100000,-0.100000)"
fill="#cccccc" stroke="none">
<path d="M2345 5064 c-621 -65 -1137 -305 -1560 -729 -210 -210 -352 -407
-480 -670 -116 -236 -190 -475 -232 -745 -25 -162 -25 -558 0 -720 86 -555
324 -1027 712 -1415 387 -388 861 -626 1415 -712 162 -25 558 -25 720 0 269
42 511 117 745 232 264 129 461 270 670 480 210 209 351 406 480 670 151 307
225 594 255 984 21 275 -31 635 -137 946 -48 143 -164 388 -239 505 -202 318
-486 602 -804 804 -260 166 -627 300 -960 351 -101 16 -494 28 -585 19z m319
-452 c102 -55 234 -233 326 -439 145 -324 252 -806 275 -1228 3 -60 8 -122 10
-137 l5 -28 -720 0 -719 0 4 28 c2 15 7 76 10 136 14 257 69 592 139 847 143
520 395 883 591 851 17 -2 52 -16 79 -30z m-909 -224 c-126 -268 -232 -655
-290 -1063 -17 -126 -45 -427 -45 -497 l0 -48 -466 0 -467 0 7 57 c28 237 126
525 257 754 176 307 451 586 756 766 87 50 276 143 295 143 4 0 -17 -51 -47
-112z m1700 53 c538 -254 962 -761 1116 -1337 30 -114 59 -261 59 -301 l0 -23
-463 0 -463 0 -12 178 c-40 571 -170 1120 -348 1473 -42 84 -46 83 111 10z
m-2027 -2278 c40 -572 170 -1121 348 -1474 41 -83 44 -82 -93 -19 -470 217
-862 631 -1056 1115 -66 165 -116 350 -133 498 l-7 57 465 0 464 0 12 -177z
m1847 150 c-2 -16 -7 -77 -10 -138 -17 -315 -91 -713 -185 -995 -141 -421
-349 -702 -519 -702 -204 0 -450 386 -584 917 -63 248 -109 543 -122 781 -3
60 -8 121 -10 137 l-4 27 719 0 720 0 -5 -27z m1355 5 c0 -41 -29 -188 -59
-302 -156 -582 -587 -1094 -1134 -1346 -137 -63 -134 -64 -93 19 178 353 308
902 348 1474 l12 177 463 0 463 0 0 -22z"/>
</g>
</svg>
